HIERARCHY
ROOT Joint1
{
	OFFSET 0.000000 0.000000 0.000000
	CHANNELS 6 Xposition Yposition Zposition Xrotation Yrotation Zrotation
	JOINT Joint2
	{
		OFFSET -0.000000 0.000000 1.456275
		CHANNELS 6 Xposition Yposition Zposition Xrotation Yrotation Zrotation
		JOINT Joint3
		{
			OFFSET -0.000000 0.000002 1.471446
			CHANNELS 6 Xposition Yposition Zposition Xrotation Yrotation Zrotation
			JOINT Joint4
			{
				OFFSET 0.625745 0.000000 0.917755
				CHANNELS 6 Xposition Yposition Zposition Xrotation Yrotation Zrotation
				JOINT Joint5
				{
					OFFSET -0.629534 0.000001 0.940221
					CHANNELS 6 Xposition Yposition Zposition Xrotation Yrotation Zrotation
					JOINT Joint6
					{
						OFFSET -0.000001 0.113772 1.960660
						CHANNELS 6 Xposition Yposition Zposition Xrotation Yrotation Zrotation
						JOINT Joint7
						{
							OFFSET -0.669733 -0.113771 0.388340
							CHANNELS 6 Xposition Yposition Zposition Xrotation Yrotation Zrotation
							End Site
							{
								OFFSET 0.005509 0.005509 0.438980
							}
						}
					}
				}
			}
		}
	}
}
MOTION
Frames: 14
Frame Time: 0.041667
0.000000 0.000000 0.000000 -0.000000 1.019410 -65.524546 -0.000000 0.000000 1.456275 0.000001 -53.604902 0.000001 -0.000000 0.000002 1.471446 -0.000002 -1.133458 54.254467 0.625745 0.000000 0.917755 -0.000016 78.799107 0.000007 -0.629534 0.000001 0.940221 0.000002 1.709734 -19.676810 -0.000001 0.113772 1.960661 -88.303875 -218.911743 0.000003 -0.669734 -0.113771 0.388340 0.311830 2.534316 44.124320 
0.000000 0.000000 0.000000 -0.000000 1.019410 -63.656461 -0.000000 0.000000 1.456275 0.000003 -53.359046 -0.000002 -0.000000 0.000002 1.471446 -0.000003 -1.133455 52.706582 0.625745 0.000000 0.917755 -0.000045 80.402214 0.000012 -0.629534 0.000001 0.940221 0.000001 1.709737 -19.116209 -0.000001 0.113772 1.960660 -88.303875 -220.369182 0.000004 -0.669733 -0.113771 0.388340 0.311493 2.580254 46.713067 
0.000000 0.000000 0.000000 -0.000000 1.019410 -61.861672 -0.000000 0.000000 1.456275 -0.000003 -53.122834 0.000001 -0.000000 0.000002 1.471446 -0.000002 -1.133457 51.219428 0.625745 0.000000 0.917755 -0.000020 81.942422 0.000007 -0.629534 0.000001 0.940221 0.000000 1.709735 -18.577606 -0.000001 0.113772 1.960661 -88.303882 -221.769439 -0.000000 -0.669733 -0.113770 0.388341 0.309211 2.624332 49.200342 
0.000000 0.000000 0.000000 -0.000000 1.019410 -60.120507 -0.000000 0.000000 1.456275 0.000002 -52.893685 0.000001 -0.000000 0.000002 1.471446 -0.000004 -1.133457 49.776715 0.625745 0.000000 0.917755 -0.000028 83.436614 0.000018 -0.629534 0.000001 0.940221 0.000002 1.709737 -18.055095 -0.000001 0.113772 1.960660 -88.303882 -223.127855 0.000004 -0.669734 -0.113770 0.388340 0.305173 2.666960 51.613373 
0.000000 0.000000 0.000000 -0.000000 1.019410 -58.359677 -0.000000 0.000000 1.456275 -0.000002 -52.661940 -0.000001 -0.000000 0.000002 1.471446 -0.000004 -1.133455 48.317701 0.625745 0.000000 0.917755 -0.000026 84.947677 -0.000011 -0.629533 0.000001 0.940221 0.000002 1.709736 -17.526689 -0.000001 0.113772 1.960660 -88.303882 -224.501624 -0.000002 -0.669734 -0.113771 0.388341 0.299266 2.709859 54.053755 
0.000000 0.000000 0.000000 -0.000000 1.019410 -56.584552 -0.000000 -0.000000 1.456275 0.000001 -52.428320 -0.000000 -0.000000 0.000002 1.471446 -0.000005 -1.133455 46.846840 0.625745 0.000000 0.917755 -0.000065 86.471008 0.000044 -0.629533 0.000001 0.940220 0.000001 1.709734 -16.993985 -0.000001 0.113772 1.960660 -88.303882 -225.886514 0.000005 -0.669733 -0.113771 0.388340 0.291463 2.752808 56.514040 
0.000000 0.000000 0.000000 -0.000000 1.019410 -54.814788 -0.000000 0.000000 1.456275 -0.000002 -52.195397 -0.000005 -0.000000 0.000002 1.471446 -0.000004 -1.133456 45.380419 0.625745 0.000001 0.917755 -0.000091 87.989748 0.000034 -0.629533 0.000001 0.940221 -0.000000 1.709738 -16.462890 -0.000001 0.113772 1.960661 -88.303875 -227.267250 0.000001 -0.669733 -0.113771 0.388340 0.281853 2.795262 58.967004 
0.000000 0.000000 0.000000 -0.000000 1.019410 -53.048597 -0.000000 -0.000000 1.456275 0.000002 -51.962952 -0.000001 -0.000000 0.000002 1.471446 -0.000003 -1.133454 43.916965 0.625745 0.000000 0.917755 -0.000318 89.505408 0.000014 -0.629533 0.000001 0.940221 -0.000001 1.709737 -15.932871 -0.000001 0.113772 1.960660 -88.303875 -228.645186 0.000003 -0.669733 -0.113771 0.388340 0.270458 2.837178 61.415087 
0.000000 0.000000 0.000000 -0.000000 1.019410 -51.280627 -0.000000 0.000000 1.456275 -0.000003 -51.730265 -0.000001 -0.000001 0.000002 1.471446 -0.000002 -1.133457 42.452030 0.625745 0.000000 0.917754 0.000094 91.022612 -0.000055 -0.629534 0.000001 0.940221 0.000001 1.709733 -15.402316 -0.000001 0.113772 1.960661 -88.303875 -230.024543 0.000002 -0.669734 -0.113771 0.388340 0.257266 2.878611 63.865759 
0.000000 0.000000 0.000000 -0.000000 1.019410 -49.512646 -0.000000 -0.000000 1.456275 0.000001 -51.497591 0.000001 -0.000000 0.000002 1.471446 -0.000001 -1.133457 40.987094 0.625745 0.000001 0.917755 0.000028 92.539802 -0.000012 -0.629534 0.000001 0.940221 0.000002 1.709735 -14.871753 -0.000000 0.113771 1.960660 -88.303875 -231.403858 0.000000 -0.669733 -0.113771 0.388341 0.242312 2.919443 66.316513 
0.000000 0.000000 0.000000 -0.000000 1.019410 -47.746461 -0.000000 0.000000 1.456275 -0.000001 -51.265149 -0.000000 -0.000000 0.000002 1.471446 0.000003 -1.133454 39.523641 0.625744 0.000000 0.917755 0.000010 94.055468 -0.000014 -0.629534 0.000001 0.940221 -0.000000 1.709733 -14.341736 -0.000000 0.113772 1.960661 -88.303882 -232.781808 0.000000 -0.669733 -0.113772 0.388340 0.225640 2.959559 68.764897 
0.000000 0.000000 0.000000 -0.000000 1.019410 -45.976694 -0.000000 0.000000 1.456275 0.000002 -51.032223 -0.000004 -0.000000 0.000002 1.471446 -0.000002 -1.133458 38.057220 0.625745 0.000000 0.917755 0.000021 95.574202 -0.000014 -0.629534 0.000001 0.940221 -0.000000 1.709734 -13.810645 -0.000001 0.113772 1.960660 -88.303882 -234.162517 0.000001 -0.669733 -0.113771 0.388340 0.207227 2.999006 71.218348 
0.000000 0.000000 0.000000 -0.000000 1.019410 -44.201566 -0.000000 0.000000 1.456275 0.000002 -50.798600 -0.000004 -0.000000 0.000002 1.471446 0.000001 -1.133454 36.586362 0.625745 0.000000 0.917755 0.000020 97.097546 -0.000018 -0.629534 0.000001 0.940220 -0.000001 1.709735 -13.277939 -0.000001 0.113773 1.960660 -88.303875 -235.547434 0.000007 -0.669733 -0.113771 0.388341 0.187076 3.037745 73.679327 
0.000000 0.000000 0.000000 -0.000000 1.019410 -42.440740 -0.000000 0.000000 1.456275 0.000001 -50.566862 0.000002 -0.000000 0.000002 1.471446 -0.000000 -1.133454 35.127349 0.625745 0.000000 0.917755 0.000008 98.608595 -0.000012 -0.629534 0.000001 0.940221 0.000002 1.709732 -12.749529 -0.000001 0.113772 1.960661 -88.303875 -236.921176 -0.000001 -0.669733 -0.113771 0.388340 0.165460 3.075284 76.120580 
